<?xml version="1.0" encoding="utf-8"?>
<!-- Generator: Adobe Illustrator 24.3.0, SVG Export Plug-In . SVG Version: 6.00 Build 0)  -->
<svg version="1.1" id="Слой_1" xmlns="http://www.w3.org/2000/svg" xmlns:xlink="http://www.w3.org/1999/xlink" x="0px" y="0px"
	 viewBox="0 0 16 16" style="enable-background:new 0 0 16 16;" xml:space="preserve">
<style type="text/css">
	.st0{fill:#E02828;}
</style>
<g>
	<path class="st0" d="M13.2,2.8c-0.4-0.4-0.9-0.4-1.3,0L8,6.7L4.1,2.8c-0.4-0.4-0.9-0.4-1.3,0c-0.4,0.4-0.4,0.9,0,1.3L6.7,8
		l-3.9,3.9c-0.4,0.4-0.4,0.9,0,1.3c0.2,0.2,0.4,0.3,0.6,0.3c0.2,0,0.5-0.1,0.6-0.3L8,9.3l3.9,3.9c0.2,0.2,0.4,0.3,0.6,0.3
		s0.5-0.1,0.6-0.3c0.4-0.4,0.4-0.9,0-1.3L9.3,8l3.9-3.9C13.6,3.7,13.6,3.1,13.2,2.8z"/>
</g>
</svg>
