<?xml version="1.0" encoding="utf-8"?>
<!-- Generator: Adobe Illustrator 24.3.0, SVG Export Plug-In . SVG Version: 6.00 Build 0)  -->
<svg version="1.1" id="Слой_1" xmlns="http://www.w3.org/2000/svg" xmlns:xlink="http://www.w3.org/1999/xlink" x="0px" y="0px"
	 viewBox="0 0 16 16" style="enable-background:new 0 0 16 16;" xml:space="preserve">
<style type="text/css">
	.st0{fill:#E52E2E;}
	.st1{fill-rule:evenodd;clip-rule:evenodd;fill:#E52E2E;stroke:#E52E2E;stroke-width:0.5;stroke-miterlimit:10;}
	.st2{fill:#E02828;stroke:#FFFFFF;stroke-width:0.5;stroke-miterlimit:10;}
</style>
<g id="Слой_1_1_">
</g>
<path class="st0" d="M11.7,7.2h3.9c0.1,0,0.2,0.1,0.2,0.3c0,0.1,0,0.1-0.1,0.2l-2,2.4c-0.1,0.1-0.2,0.1-0.4,0l0,0l-2-2.4
	c-0.1-0.1-0.1-0.3,0-0.4C11.6,7.2,11.7,7.2,11.7,7.2z M0.9,9.2h3.9C4.9,9.2,5,9.1,5,8.9c0-0.1,0-0.1-0.1-0.2l-2-2.4
	c-0.1-0.1-0.2-0.1-0.4,0l0,0l-2,2.4c0,0.1-0.1,0.2,0,0.3C0.7,9.1,0.9,9.2,0.9,9.2z"/>
<path class="st1" d="M8.2,3.2C6.6,3.2,5.3,3.9,4.3,5C4.2,5.2,3.9,5.2,3.6,5.1c-0.2-0.2-0.2-0.5,0-0.7l0,0c2.1-2.6,5.9-2.9,8.4-0.8
	c1.1,0.9,1.9,2.2,2.1,3.6h-1C12.6,4.8,10.6,3.2,8.2,3.2z M3.3,9.2c0.6,2.7,3.2,4.5,5.9,3.9c1.1-0.2,2.1-0.8,2.9-1.7
	c0.2-0.2,0.5-0.3,0.7-0.1s0.3,0.5,0.1,0.7l0,0c-2.1,2.6-5.9,2.9-8.4,0.8c-1.1-0.9-1.9-2.2-2.1-3.6C2.4,9.2,3.3,9.2,3.3,9.2z"/>
<g>
	<path class="st2" d="M11.1,5.5c-0.2-0.2-0.5-0.2-0.7,0L8.2,7.6L6.1,5.5c-0.2-0.2-0.5-0.2-0.7,0C5.1,5.7,5.1,6,5.4,6.2l2.1,2.1
		l-2.1,2.1c-0.2,0.2-0.2,0.5,0,0.7c0.1,0.1,0.2,0.2,0.3,0.2c0.1,0,0.3-0.1,0.3-0.2L8.2,9l2.1,2.1c0.1,0.1,0.2,0.2,0.3,0.2
		s0.3-0.1,0.3-0.2c0.2-0.2,0.2-0.5,0-0.7L8.9,8.3l2.1-2.1C11.3,6,11.3,5.6,11.1,5.5z"/>
</g>
</svg>
