<?xml version="1.0" encoding="utf-8"?>
<!-- Generator: Adobe Illustrator 24.3.0, SVG Export Plug-In . SVG Version: 6.00 Build 0)  -->
<svg version="1.1" id="Слой_1" xmlns="http://www.w3.org/2000/svg" xmlns:xlink="http://www.w3.org/1999/xlink" x="0px" y="0px"
	 viewBox="0 0 16 16" style="enable-background:new 0 0 16 16;" xml:space="preserve">
<style type="text/css">
	.st0{display:none;fill:none;stroke:#298E14;stroke-width:1.1;stroke-miterlimit:10;}
	.st1{display:none;fill:#268D1A;}
	.st2{fill:none;stroke:#298E14;stroke-miterlimit:10;}
</style>
<g id="Слой_1_1_">
</g>
<path class="st0" d="M3.2,14.2v-12c0-0.4,0.4-0.6,0.7-0.4l9.5,6c0.3,0.2,0.3,0.6,0,0.8l-9.5,6C3.6,14.8,3.2,14.5,3.2,14.2z"/>
<path class="st1" d="M4.9,11.2v-6C4.9,5,5.1,4.9,5.3,5L10,8c0.1,0.1,0.1,0.3,0,0.4l-4.7,3C5.1,11.5,4.9,11.4,4.9,11.2z"/>
<path class="st2" d="M13.8,11.6H2.2c-0.6,0-1.1-0.5-1.1-1.1v-5c0-0.6,0.5-1.1,1.1-1.1h11.6c0.6,0,1.1,0.5,1.1,1.1v5
	C14.9,11.1,14.4,11.6,13.8,11.6z"/>
</svg>
