<?xml version="1.0" encoding="utf-8"?>
<!-- Generator: Adobe Illustrator 24.3.0, SVG Export Plug-In . SVG Version: 6.00 Build 0)  -->
<svg version="1.1" xmlns="http://www.w3.org/2000/svg" xmlns:xlink="http://www.w3.org/1999/xlink" x="0px" y="0px"
	 viewBox="0 0 16 16" style="enable-background:new 0 0 16 16;" xml:space="preserve">
<style type="text/css">
	.st0{display:none;fill:none;stroke:#298E14;stroke-width:1.1;stroke-miterlimit:10;}
	.st1{display:none;fill:#268D1A;}
	.st2{display:none;fill:none;stroke:#298E14;stroke-miterlimit:10;}
	.st3{fill:#298E14;}
</style>
<g id="Слой_2">
</g>
<g id="Слой_1">
	<g id="Слой_1_1_">
	</g>
	<path class="st0" d="M3.2,14.2v-12c0-0.4,0.4-0.6,0.7-0.4l9.5,6c0.3,0.2,0.3,0.6,0,0.8l-9.5,6C3.6,14.8,3.2,14.5,3.2,14.2z"/>
	<path class="st1" d="M4.9,11.2v-6C4.9,5,5.1,4.9,5.3,5L10,8c0.1,0.1,0.1,0.3,0,0.4l-4.7,3C5.1,11.5,4.9,11.4,4.9,11.2z"/>
	<path class="st2" d="M13.8,11.6H2.2c-0.6,0-1.1-0.5-1.1-1.1v-5c0-0.6,0.5-1.1,1.1-1.1h11.6c0.6,0,1.1,0.5,1.1,1.1v5
		C14.9,11.1,14.4,11.6,13.8,11.6z"/>
	<path class="st3" d="M10,13.4L3.9,9.9c-0.4,0.2-0.8,0.3-1.2,0.3c-1.2,0-2.2-1-2.2-2.2c0-1.2,1-2.2,2.2-2.2c0.4,0,0.8,0.1,1.2,0.3
		L10,2.6V13.4z M3.8,8.8l5.3,3.1V4.2L3.8,7.2L3.6,7C3.4,6.9,3.1,6.7,2.7,6.7C2,6.7,1.4,7.3,1.4,8S2,9.3,2.7,9.3
		c0.4,0,0.7-0.2,0.9-0.3L3.8,8.8z"/>
	<path class="st3" d="M10.9,6.4c-0.2,0-0.3-0.1-0.4-0.3c-0.1-0.2,0-0.5,0.2-0.6l4-1.8c0.2-0.1,0.5,0,0.6,0.2c0.1,0.2,0,0.5-0.2,0.6
		l-4,1.8C11,6.3,11,6.4,10.9,6.4z"/>
	<path class="st3" d="M15.1,12.2c-0.1,0-0.1,0-0.2,0l-4-1.8c-0.2-0.1-0.3-0.4-0.2-0.6c0.1-0.2,0.4-0.3,0.6-0.2l4,1.8
		c0.2,0.1,0.3,0.4,0.2,0.6C15.4,12.1,15.2,12.2,15.1,12.2z"/>
	<path class="st3" d="M14.5,8.5H11c-0.3,0-0.5-0.2-0.5-0.5s0.2-0.5,0.5-0.5h3.5C14.8,7.5,15,7.7,15,8S14.8,8.5,14.5,8.5z"/>
	<polygon class="st3" points="9.5,3.7 9.4,12.1 4.2,9.6 2.3,9.6 1.2,8.4 1.5,6.8 2.8,6.6 4.3,6.6 	"/>
</g>
</svg>
