<?xml version="1.0" encoding="utf-8"?>
<!-- Generator: Adobe Illustrator 24.3.0, SVG Export Plug-In . SVG Version: 6.00 Build 0)  -->
<svg version="1.1" id="Слой_1" xmlns="http://www.w3.org/2000/svg" xmlns:xlink="http://www.w3.org/1999/xlink" x="0px" y="0px"
	 viewBox="0 0 16 16" style="enable-background:new 0 0 16 16;" xml:space="preserve">
<style type="text/css">
	.st0{fill:none;stroke:#18BC00;stroke-width:1.2;stroke-miterlimit:10;}
	.st1{fill:#18BC00;stroke:#18BC00;stroke-width:0.25;stroke-miterlimit:10;}
</style>
<g id="Слой_1_1_">
</g>
<circle class="st0" cx="8" cy="8" r="6.4"/>
<path class="st1" d="M8.1,8.8c-0.3,0-0.5-0.2-0.5-0.5V3.6c0-0.2,0.2-0.4,0.4-0.4l0,0c0.1,0,0.2,0,0.3,0.1s0.1,0.2,0.1,0.3v4.2
	c0,0,2-0.8,2.7-1l0,0c0,0,0,0,0.1,0c0.2,0,0.3,0.1,0.4,0.3c0,0.2-0.1,0.4-0.3,0.5c0,0-2.2,1.1-3,1.2C8.2,8.8,8.1,8.8,8.1,8.8z"/>
</svg>
