<?xml version="1.0" encoding="utf-8"?>
<!-- Generator: Adobe Illustrator 24.3.0, SVG Export Plug-In . SVG Version: 6.00 Build 0)  -->
<svg version="1.1" id="Слой_1" xmlns="http://www.w3.org/2000/svg" xmlns:xlink="http://www.w3.org/1999/xlink" x="0px" y="0px"
	 viewBox="0 0 16 16" style="enable-background:new 0 0 16 16;" xml:space="preserve">
<style type="text/css">
	.st0{fill:#8DA5F3;}
	.st1{fill:#EDEDF2;}
</style>
<path class="st0" d="M13.8,11c-0.9-0.2-1.8,0.3-2.2,1.2c0,0.1-0.1,0.1-0.2,0.1c-1.3,0-2.5,0-3.8,0c-0.1,0-0.1,0-0.2,0
	c0-0.4,0-0.9,0-1.3c-0.7,0.7-1.3,1.3-1.9,1.9c0.6,0.6,1.3,1.3,1.9,1.9c0-0.4,0-0.8,0-1.3c0.1,0,0.1,0,0.2,0c1.2,0,2.5,0,3.7,0
	c0.1,0,0.2,0,0.3,0.2c0.4,0.9,1.3,1.3,2.3,1.1c0.9-0.2,1.6-1,1.5-2C15.4,12,14.8,11.2,13.8,11z"/>
<path class="st0" d="M3.7,11.5c0-1.3,0-2.5,0-3.8c0-0.1,0-0.1,0-0.2c0.4,0,0.9,0,1.3,0c-0.7-0.7-1.3-1.3-2-2c-0.7,0.7-1.3,1.3-2,2
	c0.5,0,0.9,0,1.3,0c0,1.3,0,2.7,0,4c0,0.1-0.1,0.1-0.1,0.2c-1.2,0.5-1.6,2.1-0.8,3.1c0.5,0.6,1.4,0.9,2.1,0.6c0.8-0.3,1.3-1,1.4-1.8
	c0-0.8-0.4-1.6-1.2-1.9C3.7,11.7,3.7,11.6,3.7,11.5z"/>
<path class="st0" d="M12.4,4.5c0,1.3,0,2.5,0,3.8c0,0.1,0,0.1,0,0.2c-0.4,0-0.9,0-1.3,0c0.7,0.7,1.3,1.3,2,2c0.7-0.7,1.3-1.3,2-2
	c-0.5,0-0.9,0-1.3,0c0-1.3,0-2.7,0-4c0-0.1,0.1-0.1,0.1-0.2c1.2-0.5,1.6-2.1,0.8-3.1c-0.5-0.6-1.4-0.9-2.2-0.6
	c-0.8,0.3-1.3,1-1.4,1.8c0,0.8,0.4,1.6,1.2,1.9C12.4,4.4,12.4,4.4,12.4,4.5z"/>
<path class="st0" d="M4.4,3.7c0-0.1,0.1-0.1,0.2-0.1c1.3,0,2.5,0,3.8,0c0,0,0.1,0,0.1,0c0,0.4,0,0.9,0,1.3c0.7-0.7,1.3-1.3,2-2
	c-0.6-0.7-1.3-1.3-2-2c0,0.5,0,0.9,0,1.3c0,0-0.1,0-0.1,0c-1.3,0-2.6,0-3.9,0c-0.1,0-0.1-0.1-0.2-0.1C4,1.4,3.5,1,2.6,0.9
	c-0.8,0-1.4,0.3-1.8,1c-0.6,1-0.1,2.2,0.9,2.7C2.7,5.2,3.9,4.7,4.4,3.7z"/>
<g>
	<path class="st1" d="M6.4,5.5h2.9V6H7.1v1.8h2v0.6h-2v2.4H6.4V5.5z"/>
</g>
</svg>
