<?xml version="1.0" encoding="utf-8"?>
<!-- Generator: Adobe Illustrator 24.3.0, SVG Export Plug-In . SVG Version: 6.00 Build 0)  -->
<svg version="1.1" id="Слой_1" xmlns="http://www.w3.org/2000/svg" xmlns:xlink="http://www.w3.org/1999/xlink" x="0px" y="0px"
	 viewBox="0 0 16 16" style="enable-background:new 0 0 16 16;" xml:space="preserve">
<style type="text/css">
	.st0{fill:#8DA5F3;}
	.st1{fill:#EDEDF2;}
</style>
<path class="st0" d="M9,9.5c0-1.9,0-3.8,0.1-5.7c0-0.1,0-0.2,0-0.2c0.7,0,1.3,0,2,0c-1-1-2-2-3-3c-1,1-2,2-3,3c0.7,0,1.3,0,2,0
	c0,2-0.1,4-0.1,6c0,0.2-0.1,0.2-0.2,0.2c-1.8,0.8-2.4,3.1-1.1,4.7c0.8,0.9,2.1,1.3,3.2,0.9c1.2-0.4,2-1.5,2.1-2.7
	c0.1-1.3-0.6-2.4-1.8-2.9C9,9.7,9,9.6,9,9.5z"/>
<g>
	<path class="st1" d="M6.8,10.4h2.4v0.5H7.4v1.5H9v0.5H7.4v2H6.8V10.4z"/>
</g>
</svg>
