<?xml version="1.0" encoding="utf-8"?>
<!-- Generator: Adobe Illustrator 24.3.0, SVG Export Plug-In . SVG Version: 6.00 Build 0)  -->
<svg version="1.1" id="Слой_1" xmlns="http://www.w3.org/2000/svg" xmlns:xlink="http://www.w3.org/1999/xlink" x="0px" y="0px"
	 viewBox="0 0 16 16" style="enable-background:new 0 0 16 16;" xml:space="preserve">
<style type="text/css">
	.st0{fill:#E07E2D;}
</style>
<g id="Слой_1_1_">
</g>
<g>
	<path class="st0" d="M3,4.4v9.9H1.8V4.4L3,4.4z"/>
</g>
<polygon class="st0" points="2.4,2 0.5,4.4 4.3,4.4 "/>
<g>
	<path class="st0" d="M7.5,4.4v9.9H6.3V4.4L7.5,4.4z"/>
</g>
<polygon class="st0" points="6.9,2 5,4.4 8.8,4.4 "/>
<g id="Слой_2_1_">
	<g>
		<path class="st0" d="M14.4,14.2c-0.3-0.4-0.5-0.7-0.8-1.2c-0.8,1-1.6,1.3-2.5,1.3c-1.7,0-2.7-1.5-2.7-3.4c0-1.6,0.7-2.8,1.7-3.5v0
			C9.7,6.8,9.4,6,9.4,5.1c0-1.4,0.8-3,2.3-3c1.1,0,2,1,2,2.5c0,1.2-0.6,2.2-1.9,3.2v0.1c0.8,1.2,1.5,2.5,2.1,3.4
			c0.4-0.9,0.7-2,0.8-3.5h0.9c-0.2,1.9-0.6,3.4-1.3,4.4c0.5,0.7,0.9,1.3,1.4,2.1L14.4,14.2L14.4,14.2z M13,12.2
			c-0.5-0.8-1.5-2.2-2.5-3.7c-0.5,0.4-1.1,1.2-1.1,2.4c0,1.3,0.8,2.4,1.8,2.4C12,13.3,12.6,12.8,13,12.2z M10.4,4.9
			c0,0.9,0.3,1.5,0.6,2.2c0.9-0.8,1.5-1.4,1.5-2.4c0-0.8-0.3-1.5-1.1-1.5C10.7,3.2,10.4,4,10.4,4.9z"/>
	</g>
</g>
</svg>
