<?xml version="1.0" encoding="utf-8"?>
<!-- Generator: Adobe Illustrator 24.3.0, SVG Export Plug-In . SVG Version: 6.00 Build 0)  -->
<svg version="1.1" id="Слой_1" xmlns="http://www.w3.org/2000/svg" xmlns:xlink="http://www.w3.org/1999/xlink" x="0px" y="0px"
	 viewBox="0 0 16 16" style="enable-background:new 0 0 16 16;" xml:space="preserve">
<style type="text/css">
	.st0{fill:#E07E2D;}
</style>
<g id="Слой_1_1_">
</g>
<g>
	<path class="st0" d="M13.3,13.3c-0.3-0.3-0.6-0.6-1-1c-0.9,0.8-1.9,1.2-3.1,1.2c-2.1,0-3.3-1.4-3.3-3C5.9,9,6.8,8,8,7.4v0
		C7.4,6.6,7.1,5.8,7.1,5.1c0-1.3,0.9-2.7,2.7-2.7c1.3,0,2.4,0.9,2.4,2.3c0,1.1-0.7,2-2.4,2.9v0.1c0.9,1.1,1.9,2.2,2.6,3
		c0.5-0.7,0.8-1.8,1-3.1h1.3c-0.3,1.7-0.7,3-1.5,4c0.6,0.6,1.1,1.2,1.8,1.9H13.3z M11.6,11.5c-0.6-0.7-1.8-2-3-3.4
		C8,8.5,7.2,9.2,7.2,10.3c0,1.2,0.9,2.2,2.2,2.2C10.3,12.5,11.1,12.1,11.6,11.5z M8.4,4.9c0,0.8,0.4,1.4,0.8,1.9
		C10.3,6.2,11,5.7,11,4.7c0-0.7-0.4-1.4-1.3-1.4C8.8,3.4,8.4,4.1,8.4,4.9z"/>
</g>
<g>
	<path class="st0" d="M2.5,10.2l0-0.4C2.3,8.9,2.6,7.9,3.5,7c0.7-0.9,1.1-1.5,1.1-2.2c0-0.8-0.5-1.4-1.6-1.4c-0.6,0-1.2,0.2-1.6,0.5
		L1,2.8c0.6-0.4,1.5-0.7,2.3-0.7c1.9,0,2.7,1.2,2.7,2.4c0,1.1-0.6,1.9-1.4,2.8C3.9,8.2,3.7,9,3.7,9.8l0,0.4H2.5z M2.1,12.5
		c0-0.6,0.4-1,1-1c0.6,0,1,0.4,1,1c0,0.6-0.4,1-1,1C2.5,13.5,2.1,13.1,2.1,12.5z"/>
</g>
</svg>
