<?xml version="1.0" encoding="utf-8"?>
<!-- Generator: Adobe Illustrator 24.3.0, SVG Export Plug-In . SVG Version: 6.00 Build 0)  -->
<svg version="1.1" id="Слой_1" xmlns="http://www.w3.org/2000/svg" xmlns:xlink="http://www.w3.org/1999/xlink" x="0px" y="0px"
	 viewBox="0 0 16 16" style="enable-background:new 0 0 16 16;" xml:space="preserve">
<style type="text/css">
	.st0{fill:#E07E2D;}
</style>
<g id="Слой_1_1_">
</g>
<g>
	<path class="st0" d="M6.7,10.9l0-0.5c-0.1-1,0.2-2.2,1.2-3.4c0.9-1,1.4-1.8,1.4-2.7c0-1-0.6-1.7-1.9-1.7c-0.7,0-1.5,0.2-2,0.6
		L4.9,1.9c0.7-0.5,1.8-0.8,2.8-0.8c2.3,0,3.3,1.4,3.3,2.9c0,1.3-0.8,2.3-1.7,3.4c-0.9,1-1.2,1.9-1.1,2.9l0,0.5H6.7z M6.3,13.7
		c0-0.7,0.5-1.2,1.2-1.2c0.7,0,1.2,0.5,1.2,1.2c0,0.7-0.5,1.2-1.2,1.2C6.8,14.9,6.3,14.4,6.3,13.7z"/>
</g>
</svg>
