<?xml version="1.0" encoding="utf-8"?>
<!-- Generator: Adobe Illustrator 24.3.0, SVG Export Plug-In . SVG Version: 6.00 Build 0)  -->
<svg version="1.1" id="Слой_1" xmlns="http://www.w3.org/2000/svg" xmlns:xlink="http://www.w3.org/1999/xlink" x="0px" y="0px"
	 viewBox="0 0 16 16" style="enable-background:new 0 0 16 16;" xml:space="preserve">
<style type="text/css">
	.st0{fill:#E07E2D;}
</style>
<g id="Слой_1_1_">
</g>
<g>
	<path class="st0" d="M4,10.5L4,10c-0.1-1,0.2-2,1.1-3.1c0.8-1,1.3-1.7,1.3-2.5c0-0.9-0.6-1.5-1.7-1.5C4,2.9,3.3,3.2,2.8,3.5
		L2.4,2.4C3,1.9,4,1.6,5,1.6c2.1,0,3,1.3,3,2.6c0,1.2-0.7,2.1-1.5,3.1c-0.8,0.9-1.1,1.7-1,2.7l0,0.4H4z M3.6,13
		c0-0.7,0.4-1.1,1.1-1.1c0.6,0,1.1,0.5,1.1,1.1c0,0.6-0.4,1.1-1.1,1.1C4.1,14.2,3.6,13.7,3.6,13z"/>
</g>
<g>
	<path class="st0" d="M11.9,1.6l0,12.6h-1.4l0-12.6H11.9z"/>
</g>
</svg>
