<?xml version="1.0" encoding="utf-8"?>
<!-- Generator: Adobe Illustrator 24.3.0, SVG Export Plug-In . SVG Version: 6.00 Build 0)  -->
<svg version="1.1" xmlns="http://www.w3.org/2000/svg" xmlns:xlink="http://www.w3.org/1999/xlink" x="0px" y="0px"
	 viewBox="0 0 16 16" style="enable-background:new 0 0 16 16;" xml:space="preserve">
<style type="text/css">
	.st0{fill:#E07E2D;}
</style>
<g id="Слой_1">
</g>
<g id="Слой_2">
	<g>
		<path class="st0" d="M11.4,14.2c-0.4-0.4-0.7-0.7-1.2-1.2c-1.1,1-2.3,1.4-3.6,1.4c-2.4,0-3.8-1.6-3.8-3.5c0-1.7,1-2.9,2.4-3.6V7.3
			c-0.6-0.8-1-1.7-1-2.6c0-1.5,1.1-3.1,3.2-3.1c1.6,0,2.8,1,2.8,2.6c0,1.3-0.8,2.3-2.7,3.3v0.1c1.1,1.2,2.2,2.6,3,3.5
			c0.6-0.9,1-2.1,1.2-3.6H13c-0.3,2-0.9,3.5-1.8,4.6c0.7,0.7,1.3,1.4,2,2.2H11.4z M9.4,12.1c-0.7-0.8-2.1-2.3-3.5-3.9
			c-0.7,0.4-1.6,1.2-1.6,2.5c0,1.4,1.1,2.5,2.6,2.5C7.9,13.2,8.8,12.7,9.4,12.1z M5.6,4.5c0,0.9,0.4,1.6,0.9,2.3
			C7.8,6,8.6,5.3,8.6,4.3c0-0.8-0.4-1.6-1.5-1.6C6.1,2.7,5.6,3.5,5.6,4.5z"/>
	</g>
</g>
</svg>
